<?xml version="1.0" encoding="utf-8"?>
<!-- Generator: Adobe Illustrator 24.3.0, SVG Export Plug-In . SVG Version: 6.00 Build 0)  -->
<svg version="1.1" id="e07e5ae7-3299-40d2-9315-78b8b3e13d89"
	 xmlns="http://www.w3.org/2000/svg" xmlns:xlink="http://www.w3.org/1999/xlink" x="0px" y="0px" viewBox="0 0 1075 766.4"
	 style="enable-background:new 0 0 1075 766.4;" xml:space="preserve">
<style type="text/css">
	.st0{fill:#69C2C2;}
	.st1{fill:#3F3D56;}
	.st2{fill:#F0F0F0;}
	.st3{fill:#F2F2F2;}
	.st4{fill:#D0E9FF;}
	.st5{fill:#F0FF2E;}
	.st6{fill:#CFCCE0;}
	.st7{fill:#2F2E41;}
	.st8{fill:#F2CBAF;}
	.st9{fill:#C6C3C1;}
	.st10{fill:#6D7575;}
</style>
<path class="st0" d="M521.3,102.9v397c0,9.8-8,17.8-17.8,17.8H342.3c-9.8,0-17.8-7.9-17.8-17.8c0,0,0,0,0-0.1v-397
	c0-9.9,8-17.8,17.8-17.8c0,0,0,0,0,0h24.1v3.1c0,8.1,6.6,14.7,14.7,14.7h82c8.1,0,14.7-6.6,14.7-14.7v-3.1h25.7
	C513.3,85.1,521.3,93,521.3,102.9C521.3,102.9,521.3,102.9,521.3,102.9z"/>
<rect x="331.6" y="151.4" class="st1" width="182.7" height="89"/>
<rect x="347.9" y="290.2" class="st2" width="150" height="8.2"/>
<rect x="347.9" y="303.5" class="st2" width="150" height="8.2"/>
<rect x="347.9" y="316.8" class="st2" width="150" height="8.2"/>
<rect x="347.9" y="330.1" class="st2" width="150" height="8.2"/>
<path class="st1" d="M427.5,443c-5.2,0-9.5-4.2-9.5-9.5c0-5.2,4.2-9.5,9.5-9.5c5.2,0,9.5,4.2,9.5,9.5
	C436.9,438.8,432.7,443,427.5,443z M427.5,425.7c-4.3,0-7.9,3.5-7.9,7.9c0,4.3,3.5,7.9,7.9,7.9c4.3,0,7.9-3.5,7.9-7.9l0,0
	C435.3,429.2,431.8,425.7,427.5,425.7L427.5,425.7z"/>
<path class="st3" d="M196.9,17.8v397c0,9.8-8,17.8-17.8,17.8H17.8C8,432.7,0,424.7,0,414.9c0,0,0,0,0-0.1v-397C0,8,8,0,17.8,0
	c0,0,0,0,0,0H42v3.1c0,8.1,6.6,14.7,14.7,14.7h82c8.1,0,14.7-6.6,14.7-14.7V0H179C188.9,0,196.9,8,196.9,17.8
	C196.9,17.8,196.9,17.8,196.9,17.8z"/>
<path class="st1" d="M176.4,216.8H18.9v-141h157.5V216.8z M20.5,215.2h154.4V77.4H20.5L20.5,215.2z"/>
<rect x="96.9" y="41.7" transform="matrix(0.6665 -0.7455 0.7455 0.6665 -76.4965 121.5967)" class="st1" width="1.6" height="209.2"/>
<rect x="-6.9" y="145.5" transform="matrix(0.7455 -0.6665 0.6665 0.7455 -72.6495 102.3047)" class="st1" width="209.2" height="1.6"/>
<rect x="19.7" y="257.7" class="st1" width="155.9" height="1.6"/>
<rect x="19.7" y="271.9" class="st1" width="155.9" height="1.6"/>
<rect x="19.7" y="286.1" class="st1" width="155.9" height="1.6"/>
<rect x="19.7" y="300.3" class="st1" width="78" height="1.6"/>
<rect x="19.7" y="314.4" class="st1" width="78" height="1.6"/>
<path class="st3" d="M836.1,35.9v360.8c0,9-7.3,16.2-16.2,16.2H673.4c-8.9,0-16.2-7.2-16.2-16.2c0,0,0,0,0,0V35.9
	c0-9,7.3-16.2,16.2-16.2c0,0,0,0,0,0h21.9v2.8c0,7.4,6,13.3,13.3,13.3h74.5c7.4,0,13.3-6,13.3-13.3v-2.8h23.4
	C828.8,19.7,836,27,836.1,35.9C836.1,35.9,836.1,35.9,836.1,35.9z"/>
<rect x="669.4" y="203.4" class="st1" width="155.9" height="1.6"/>
<rect x="669.4" y="244.3" class="st1" width="155.9" height="1.6"/>
<rect x="669.4" y="285.3" class="st1" width="155.9" height="1.6"/>
<rect x="786" y="196.3" class="st0" width="11" height="25.2"/>
<rect x="689.1" y="236.5" class="st4" width="11" height="25.2"/>
<rect x="753.7" y="276.6" class="st5" width="11" height="25.2"/>
<path class="st1" d="M746.6,146.7c-17.4,0-31.5-14.1-31.5-31.5s14.1-31.5,31.5-31.5s31.5,14.1,31.5,31.5c0,0,0,0,0,0
	C778.1,132.6,764,146.7,746.6,146.7z M746.6,85.3c-16.5,0-29.9,13.4-29.9,29.9c0,16.5,13.4,29.9,29.9,29.9
	c16.5,0,29.9-13.4,29.9-29.9C776.5,98.7,763.1,85.3,746.6,85.3L746.6,85.3z"/>
<rect x="248" y="197.5" transform="matrix(0.7711 -0.6367 0.6367 0.7711 -100.3915 215.0889)" class="st3" width="2" height="99.3"/>
<path class="st2" d="M288.2,294.8c-5.2-3-12.5-6.2-18.2-7.1l9.5-3.4l5.1-8.7C284.5,281.3,286.3,289,288.2,294.8z"/>
<rect x="545.7" y="246.2" transform="matrix(0.6365 -0.7713 0.7713 0.6365 25.7423 548.9714)" class="st3" width="99.3" height="2"/>
<path class="st3" d="M556,294.8c2-5.7,3.7-13.4,3.5-19.2l5.1,8.7l9.5,3.4C568.5,288.6,561.3,291.7,556,294.8z"/>
<rect x="731.7" y="696.4" class="st6" width="394.7" height="2"/>
<path class="st7" d="M907.8,646.5l3.3,41.8c0,0-13.4,33.5,8.4,36.8c0.2,0,0.4,0.1,0.6,0.1c9.4,1.3,18.1-5.3,19.4-14.7
	c0.2-1.8,0.2-3.6-0.1-5.4l-3.3-18.4c0,0,1.7-33.5-8.4-40.1S907.8,646.5,907.8,646.5z"/>
<path class="st7" d="M939.6,609.7c0,0-3.3,10-1.7,20.1s3.3,38.5,3.3,38.5s0,30.1,11.7,30.1c4.2,0,7.7-3.6,10.5-8.3
	c5.9-10,7.5-22,4.3-33.1l-6.5-23.8v-18.4L939.6,609.7z"/>
<path class="st7" d="M877.7,303.5c0,0-36.8,48.5-16.7,120.4s21.7,92,21.7,92l11.7,137.2c0,0,20.1,6.7,36.8-3.3l-5-132.2v-80.3
	l10,88.7v88.7c0,0,23.4,23.4,40.1,1.7l3.3-98.7c0,0,10-137.2,3.3-150.6s-21.7-60.2-21.7-60.2L877.7,303.5z"/>
<path class="st7" d="M911,77.8c0,0-17-6.1-27.9,18.2s-27.9,51-27.9,51l9.7,2.4c0,0,2.4-17,8.5-19.4l-6.9,55c0,0,75.2,28.6,108,0.6
	l1-44.7c0,0,4.9,1.2,4.9,8.5l3.6-3.6c0,0-3.6-7.3-14.6-17c-7.2-6.4-9.6-18.5-10.5-26.1c-0.6-6.3-3.2-12.3-7.3-17.2
	C944.3,77.1,931.1,68.2,911,77.8z"/>
<path class="st8" d="M919.5,94.4c18.5,0,30.8,17,31.8,31.8c1,14.8-9.6,25.3-12.3,27.9c-3.5,3.5-9.3,9.2-17.9,9.6
	c-8.9,0.4-15.3-5.3-19.1-8.6c-3.1-2.7-15.1-13.3-14.3-28.8C888.5,111.2,901.1,94.4,919.5,94.4z"/>
<path class="st8" d="M911.2,146.3l-10,40.1l30.1,87l23.4-92c0,0-21.7-15.1-16.7-35.1L911.2,146.3z"/>
<path class="st7" d="M882.8,130.8c0,0,9.7-13.4,18.2-15.8s9.7-14.6,9.7-14.6s21.9,24.3,35.2,25.5s1.2-29.2,1.2-29.2l-24.3-6.1
	l-23.1,2.4l-18.2,12.2L882.8,130.8z"/>
<circle class="st2" cx="417.2" cy="417.6" r="18.1"/>
<rect x="723" y="102.4" class="st0" width="47.2" height="27.8"/>
<path class="st8" d="M845,301.3l-5,83.6c0,0-16.7,46.8,5,46.8s8.4-50.2,8.4-50.2l20.1-82L845,301.3z"/>
<path class="st8" d="M1007.2,291.3l5,83.6c0,0,16.7,46.8-5,46.8c-21.7,0-8.4-50.2-8.4-50.2l-20.1-82L1007.2,291.3z"/>
<path class="st6" d="M992.2,374.9c0,0-48.5,18.4-58.6-10s-8.4-50.2-8.4-50.2s-15.1,58.6-40.1,58.6s-38.5-8.4-38.5-8.4
	s18.4-58.6,35.1-68.6c0,0,0.1-0.2,0.2-0.6c0.9-2.3,4.2-11.6,1.9-19.8c-0.5-1.7-1.2-3.3-2.2-4.7c-6.7-10-13.4-13.4-11.7-38.5
	l-13.4-46.8l46.2-10.6l24.1,75.9l21.9-74.3l39.9,5.7c0,0,3.3,60.2-13.4,82c-2.6,3.4-4.6,7.3-5.9,11.4c-2.9,9.2-2.2,19-0.7,26.7h0
	c1.1,5.3,2.7,10.5,4.9,15.4L992.2,374.9z"/>
<path class="st6" d="M978.8,184.2l10-1.7c0,0,4.2-0.8,11.7,5c9.6,7.5,10,108.7,10,108.7l-31.8,1.7V184.2z"/>
<path class="st6" d="M865,189.2l-8.4-3.3c0,0-3.3-1.7-5,8.4s-10,113.8-10,113.8l35.1-1.7v-75.3L865,189.2z"/>
<circle class="st7" cx="927.8" cy="285.4" r="10"/>
<path class="st2" d="M361.5,201.4c-30,39-30,39-30,39H468l-65.7-24.1L361.5,201.4z"/>
<path class="st9" d="M417.2,190c32.4,16.8,64.7,33.6,97.1,50.5c-18,0-35.9,0-53.9,0l-63.8-26.2L417.2,190z"/>
<rect x="727.8" y="106.9" class="st10" width="12.2" height="11.4"/>
<rect x="746.6" y="107.6" class="st4" width="19.1" height="10.6"/>
</svg>
