<?xml version="1.0" encoding="utf-8"?>
<!-- Generator: Adobe Illustrator 24.3.0, SVG Export Plug-In . SVG Version: 6.00 Build 0)  -->
<svg version="1.1" id="e96d43fc-c2ba-4d44-92c2-c0adf9da4e64"
	 xmlns="http://www.w3.org/2000/svg" xmlns:xlink="http://www.w3.org/1999/xlink" x="0px" y="0px" viewBox="0 0 862.8 574"
	 style="enable-background:new 0 0 862.8 574;" xml:space="preserve">
<style type="text/css">
	.st0{fill:#382523;}
	.st1{fill:#3F3D56;}
	.st2{fill:#F2F2F2;}
	.st3{fill:#8DE0DC;}
	.st4{fill:#4C211B;}
	.st5{fill:#F9C3B7;}
	.st6{opacity:5.000000e-02;enable-background:new    ;}
	.st7{fill:#31CCD3;}
	.st8{fill:#E0E0E0;}
	.st9{opacity:0.7;}
	.st10{fill:url(#SVGID_1_);}
	.st11{fill:#B9BBC9;}
	.st12{opacity:0.1;enable-background:new    ;}
	.st13{fill:#DDD3C3;stroke:#EEEEEE;stroke-miterlimit:10;}
	.st14{opacity:0.1;fill:#535461;enable-background:new    ;}
	.st15{opacity:0.1;fill:#D2D3DB;enable-background:new    ;}
	.st16{fill:#FAFAFC;}
	.st17{fill:#606060;}
	.st18{fill:#FFFFFF;}
	.st19{fill:#95EFF4;}
	.st20{fill:#CCCCCC;}
	.st21{fill:#CAE6E8;}
	.st22{fill:#E6E6E6;}
	.st23{fill:#63F1FF;}
	.st24{fill:#F9F9F9;}
	.st25{fill:#775336;}
	.st26{fill:#46AFAC;}
</style>
<path class="st0" d="M311.7,169.5c-5.3,0-12.1,0.5-19.7,2.5c-12.5,3.2-21.8,8.9-27.5,13.1c-5.9,4.4-17.3,12.4-24.5,26.9
	c-8.3,16.5-7,32.6-6.1,42.5c1.2,14.1,5.1,23.7,7,44.9c0.4,4.7,1.4,9.9-0.3,16.2c-1.5,5.4-3.4,6.2-5.1,12.8
	c-1.4,5.2-2.7,10.3-0.3,14.8c2.2,4.2,5.7,4.1,6.3,7.6c0.5,3.3-2.4,4.9-3.9,9.4c-0.9,2.8-1.4,7.2,1.3,13.8
	c53.4,1.5,106.9,2.9,160.3,4.4c8.6-2.7,14.3-10.3,14-18.2c-0.3-8.4-7.1-13.4-8-14c3.3-4.3,7.4-11,7-19c-0.3-7.7-4.5-13.1-5.9-15.1
	c-13.9-19.8,6.6-50.6-2.1-83.9c-7.7-29.5-34.2-45.2-39-48C342.5,167.2,320.3,168.5,311.7,169.5z"/>
<path class="st1" d="M559.6,497.5c0,15.2-8.8,20.6-19.6,20.6c-0.3,0-0.5,0-0.8,0c-0.5,0-1,0-1.5-0.1c-9.8-0.7-17.3-6.3-17.3-20.5
	c0-14.7,18.1-33.2,19.5-34.6l0,0c0.1-0.1,0.1-0.1,0.1-0.1S559.6,482.3,559.6,497.5z"/>
<path class="st1" d="M566.6,515.4c-8.1,12.9-18.3,12.8-27.5,7.1c-0.2-0.1-0.4-0.3-0.6-0.4c-0.4-0.3-0.8-0.6-1.2-0.8
	c-7.9-5.8-11.4-14.5-3.9-26.6c7.8-12.4,32.9-18.6,34.8-19l0,0c0.1,0,0.1,0,0.1,0S574.7,502.5,566.6,515.4z"/>
<path class="st1" d="M543.6,490.4c10.1,11.4,7.1,21.2-1,28.4c-0.2,0.2-0.4,0.3-0.6,0.5c-0.4,0.3-0.8,0.6-1.2,0.9
	c-7.8,5.9-17.1,6.8-26.6-3.8c-9.7-11-8.5-36.8-8.4-38.8l0,0c0-0.1,0-0.1,0-0.1S533.4,479,543.6,490.4z"/>
<path class="st2" d="M539.6,528.9l9.2-9.9l-9.2,11l0,1.1c-0.6,0-1.3,0-1.9-0.1l1-14.6l0-0.1l0,0l0.1-1.4l-9.2-11l9.2,10l0,0.3
	l0.7-11l-7.9-11.4l8,9.4l0.8-22.8l0-0.1v0.1l-0.1,18l7.9-7.1l-7.9,8.7l-0.2,9.9l7.3-9.5l-7.4,10.9l-0.1,5.5l10.6-13.2l-10.7,15.1
	L539.6,528.9z"/>
<path class="st2" d="M541.7,535.4l12.3-5.6l-12.7,6.6l-0.5,1c-0.6-0.3-1.2-0.5-1.7-0.8l6.5-13.1l0-0.1l0,0l0.6-1.2l-4.3-13.7
	l4.7,12.7l-0.1,0.3l4.9-9.9l-2.9-13.5l3.8,11.8l9.5-20.8l0-0.1l0,0.1l-7,16.6l10-3.6l-10.6,5l-4,9l10.4-5.9l-11,7.3l-2.2,5l14.9-8.1
	l-15.6,9.8L541.7,535.4z"/>
<path class="st2" d="M539.3,534.5l3.6-13l-3.2,14l0.5,1c-0.6,0.3-1.2,0.6-1.7,0.8l-5.8-13.4l-0.1-0.1l0,0l-0.5-1.3l-13.2-5.6
	l12.8,4.6l0.2,0.2l-4.4-10.1l-12.2-6.5l11.4,4.7l-9.7-20.6l0-0.1l0,0.1l8.1,16.1l3.7-9.9l-3,11.3l4.3,8.9l2.2-11.8l-1.6,13.1
	l2.4,4.9l3.4-16.6l-2.6,18.3L539.3,534.5z"/>
<path class="st3" d="M325.2,480.8c32.5,0,85.6-9.7,110.9-26.3c-2.7-14.9-9-39.1-15-60.8c-7.6-27.6-55.5-46.7-84.1-46.7h-27.5
	c-28.7,0-76.7,19.2-84.2,46.9c-5.7,21.1-11.8,44.3-14.8,57.9C236.4,470,291,480.8,325.2,480.8z"/>
<circle class="st4" cx="324.7" cy="252.6" r="77.1"/>
<path class="st5" d="M303.9,306.2h40.3c3.3,0,6,2.7,6,6l0,0v41.2c0,13.7-11.1,24.8-24.8,24.8l0,0h-2.8c-13.7,0-24.8-11.1-24.8-24.8
	l0,0v-41.2C297.8,308.9,300.5,306.2,303.9,306.2L303.9,306.2z"/>
<path class="st6" d="M326.5,341.1c8.7,0,17.3-1.7,25.3-4.9c-0.9-13.2-11.8-23.5-25-23.5h-2.1c-13,0-23.8,9.9-25,22.9
	C308.1,339.2,317.2,341.1,326.5,341.1z"/>
<path class="st5" d="M324.8,198.1c40,0,71.1,38.7,68.2,68.2c-1.6,17-14.4,29.4-30,44.7c-13.8,13.4-23.8,23.2-38.2,23.5
	c-17.3,0.4-30.2-13.2-42.8-26.5c-12.6-13.4-24-25.3-25.4-41.7C254,236.6,285,198.1,324.8,198.1z"/>
<path class="st0" d="M249.9,233.7c10.7-0.1,22.5-0.9,35.2-2.8c26-3.8,64.9-18.1,64.9-18.1c15.8,6.8,31.6,13.6,47.4,20.4
	c-31.4-51.5-52.3-53.4-60.3-52.5c-0.7,0.1-1.6,0.2-3.4,0.6c-23.8,4.4-40.8,14.3-47.7,18.7C268,211.4,256.4,224.9,249.9,233.7z"/>
<path class="st7" d="M518.6,510.5H561c7.9,0,14.3,6.4,14.3,14.3v1.6c0,7.9-6.4,14.3-14.3,14.3h-42.5c-7.9,0-14.3-6.4-14.3-14.3v-1.6
	C504.3,516.9,510.7,510.5,518.6,510.5z"/>
<path class="st7" d="M108.2,500.2c-6.8,1-11.5,7.3-12.9,12.9c-1.5,5.7-0.7,14.1,3.9,16.5c5.4,2.8,12.6-3,14.5-4.5
	c1.5-1.2,6.4-5.3,7.4-12c0.3-2.1,0.9-5.9-1.3-9C116.2,499.2,108.5,500.2,108.2,500.2z M104,523c-2.9-0.8-4.5-5.8-3.7-9.8
	c0.7-3.6,3.7-7.9,8-8c2.8,0,5.8,1.7,6.7,4.2C117.1,515.2,108.5,524.3,104,523z"/>
<rect y="543.2" class="st8" width="645.6" height="21.9"/>
<g class="st9">
	
		<linearGradient id="SVGID_1_" gradientUnits="userSpaceOnUse" x1="322.8031" y1="32.8379" x2="322.8031" y2="190.9391" gradientTransform="matrix(1 0 0 -1 0 576)">
		<stop  offset="0" style="stop-color:#808080;stop-opacity:0.25"/>
		<stop  offset="0.5351" style="stop-color:#808080;stop-opacity:0.12"/>
		<stop  offset="1" style="stop-color:#808080;stop-opacity:0.1"/>
	</linearGradient>
	<path class="st10" d="M200,385.1h245.6c8,0,14.5,6.5,14.5,14.5v129.1c0,8-6.5,14.5-14.5,14.5H200c-8,0-14.5-6.5-14.5-14.5V399.6
		C185.5,391.6,192,385.1,200,385.1z"/>
</g>
<path class="st11" d="M217.3,388h210.9c14.8,0,26.8,12,26.8,26.8v101.5c0,14.8-12,26.8-26.8,26.8H217.3c-14.8,0-26.8-12-26.8-26.8
	V414.8C190.5,400,202.5,388,217.3,388z"/>
<circle class="st1" cx="322.8" cy="465.6" r="9"/>
<rect x="27.4" y="565" class="st8" width="590.9" height="9"/>
<rect x="27.4" y="565" class="st12" width="590.9" height="3"/>
<path class="st13" d="M60.2,458.4c-0.9,0-1.7,0.4-2.2,1.1c-0.7,1.2,0.5,2.5,1.6,3.3c2,1.5,4.1,3,5.4,5.1c1.4,2.1,1.8,5,0.3,7
	c-1.9,2.6-6.5,3.2-7,6.4c-0.3,2.1,1.5,3.8,3.3,4.9c4.5,2.6,10.3,3.3,13.5,7.3c1.3-2.8,4.3-4.4,7.3-5s6.1-0.6,9.1-1.1
	c1,0,1.9-0.5,2.5-1.3c0.8-1.7-1.6-3.8-0.7-5.5c0.6-1.3,2.5-1.2,3.9-1.7c2.2-0.9,3.1-3.7,2.5-6s-2.4-4.1-4.3-5.6
	c-5-4-11.1-6.3-17.2-8c-2.9-0.8-6.2-2-9.2-2.1C66.3,457,63,457.9,60.2,458.4z"/>
<rect x="428.4" y="2.1" class="st14" width="434.5" height="297.7"/>
<circle class="st15" cx="469.4" cy="366.1" r="12.2"/>
<circle class="st15" cx="492.1" cy="326.8" r="12.2"/>
<path class="st16" d="M853.8,1.3H440.4c-3.3,0-5.9,2.5-5.9,5.5v258.1c0,3,2.7,5.5,5.9,5.5h413.4c1.7,0,3.4-0.7,4.5-1.9
	c0,0,0.1-0.1,0.1-0.2c0.4-0.4,0.6-0.8,0.9-1.3c0.3-0.7,0.5-1.4,0.4-2.1V6.8C859.7,3.7,857,1.3,853.8,1.3z M858,264.9
	c0,0.8-0.2,1.5-0.7,2.1c-0.4,0.6-1,1-1.6,1.3c-0.6,0.3-1.3,0.4-1.9,0.4H440.4c-2.3,0-4.2-1.8-4.2-3.9V6.8c0-2.2,1.9-3.9,4.2-3.9
	h413.4c2.3,0,4.2,1.7,4.2,3.9V264.9z"/>
<rect x="459.7" y="23.2" class="st16" width="399.2" height="1.6"/>
<ellipse class="st17" cx="473.3" cy="13" rx="4.8" ry="4.7"/>
<ellipse class="st17" cx="487.1" cy="13" rx="4.8" ry="4.7"/>
<ellipse class="st17" cx="502" cy="13" rx="3.7" ry="4.7"/>
<path class="st2" d="M811.6,136.6H500.3c-6,0-10.9-4.8-10.9-10.7V61.3c0-5.9,4.9-10.7,10.9-10.7h311.3c6,0,10.9,4.8,10.9,10.7v64.6
	C822.5,131.8,817.6,136.6,811.6,136.6z M500.3,51.9c-5.3,0-9.6,4.2-9.6,9.4v64.6c0,5.2,4.3,9.4,9.6,9.4h311.3c5.3,0,9.6-4.2,9.6-9.4
	V61.3c0-5.2-4.3-9.4-9.6-9.4H500.3z"/>
<path class="st2" d="M569,253.3h-68.7c-6,0-10.9-4.8-10.9-10.7V195c0-5.9,4.9-10.7,10.9-10.7H569c6,0,10.9,4.8,10.9,10.7v47.7
	C579.9,248.6,575,253.3,569,253.3z M500.3,185.6c-5.3,0-9.6,4.2-9.6,9.4v47.7c0,5.2,4.3,9.4,9.6,9.4H569c5.3,0,9.6-4.2,9.6-9.4V195
	c0-5.2-4.3-9.4-9.6-9.4H500.3z"/>
<path class="st2" d="M811.6,253.3h-68.7c-6,0-10.9-4.8-10.9-10.7V195c0-5.9,4.9-10.7,10.9-10.7h68.7c6,0,10.9,4.8,10.9,10.7v47.7
	C822.5,248.6,817.6,253.3,811.6,253.3z M742.9,185.6c-5.3,0-9.6,4.2-9.6,9.4v47.7c0,5.2,4.3,9.4,9.6,9.4h68.7c5.3,0,9.6-4.2,9.6-9.4
	V195c0-5.2-4.3-9.4-9.6-9.4H742.9z"/>
<path class="st2" d="M695.4,253.3h-68.7c-6,0-10.9-4.8-10.9-10.7V195c0-5.9,4.9-10.7,10.9-10.7h68.7c6,0,10.9,4.8,10.9,10.7v47.7
	C706.3,248.6,701.4,253.3,695.4,253.3z M626.7,185.6c-5.3,0-9.6,4.2-9.6,9.4v47.7c0,5.2,4.3,9.4,9.6,9.4h68.7c5.3,0,9.6-4.2,9.6-9.4
	V195c0-5.2-4.3-9.4-9.6-9.4H626.7z"/>
<polygon class="st2" points="492.9,54.8 493.2,53.6 822,132.2 821.7,133.5 "/>
<polygon class="st2" points="492.9,132.5 818.7,53.6 819,54.8 493.2,133.7 "/>
<path class="st18" d="M824.4,158.3H513.1c-5.8,0-10.6-4.6-10.6-10.4V83.3c0-5.7,4.7-10.3,10.6-10.4h311.3c5.8,0,10.6,4.6,10.6,10.4
	v64.6C835,153.6,830.3,158.3,824.4,158.3z"/>
<polygon class="st2" points="619.3,188.1 620.1,187.1 702.4,249.9 701.6,250.9 "/>
<polygon class="st2" points="620.8,250.6 702,187.1 702.8,188.1 621.6,251.6 "/>
<polygon class="st2" points="735.5,188.1 736.3,187.1 818.6,249.9 817.8,250.9 "/>
<polygon class="st2" points="737,250.6 818.2,187.1 819,188.1 737.8,251.6 "/>
<path class="st19" d="M705,298.8h-68.7c-5.8,0-10.6-4.6-10.6-10.4v-47.7c0-5.7,4.7-10.3,10.6-10.4H705c5.8,0,10.6,4.6,10.6,10.4
	v47.7C715.6,294.2,710.9,298.8,705,298.8z"/>
<path class="st20" d="M740.9,299.8H600.3c-0.4,0-0.6-0.3-0.6-0.6c0-0.3,0.3-0.6,0.6-0.6h140.6c0.4,0,0.6,0.3,0.6,0.6
	C741.5,299.5,741.3,299.8,740.9,299.8z"/>
<path class="st18" d="M679.7,261.2h-18c-2.8,0-5.1-2.2-5.1-5s2.3-5,5.1-5h18c2.8,0,5.1,2.2,5.1,5S682.5,261.2,679.7,261.2z"/>
<path class="st18" d="M690.3,278.1h-39.1c-2.8,0-5.1-2.2-5.1-5s2.3-5,5.1-5h39.1c2.8,0,5.1,2.2,5.1,5S693.1,278.1,690.3,278.1z"/>
<path class="st21" d="M579.9,262.4h-68.7c-5.8,0-10.6-4.6-10.6-10.4v-47.7c0-5.7,4.7-10.3,10.6-10.4h68.7c5.8,0,10.6,4.6,10.6,10.4
	v47.7C590.5,257.8,585.7,262.4,579.9,262.4z"/>
<path class="st18" d="M554.5,224.8h-18c-2.8,0-5.1-2.2-5.1-5s2.3-5,5.1-5h18c2.8,0,5.1,2.2,5.1,5S557.3,224.8,554.5,224.8z"/>
<path class="st18" d="M565.1,241.7H526c-2.8,0-5.1-2.2-5.1-5s2.3-5,5.1-5h39.1c2.8,0,5.1,2.2,5.1,5S568,241.7,565.1,241.7z"/>
<path class="st22" d="M826.3,280.6h-68.7c-5.8,0-10.6-4.6-10.6-10.4v-47.7c0-5.7,4.7-10.3,10.6-10.4h68.7c5.8,0,10.6,4.6,10.6,10.4
	v47.7C836.9,276,832.2,280.6,826.3,280.6z"/>
<path class="st18" d="M801,243h-18c-2.8,0-5.1-2.2-5.1-5s2.3-5,5.1-5h18c2.8,0,5.1,2.2,5.1,5S803.8,243,801,243z"/>
<path class="st18" d="M811.6,259.9h-39.1c-2.8,0-5.1-2.2-5.1-5c0-2.8,2.3-5,5.1-5h39.1c2.8,0,5.1,2.2,5.1,5
	C816.7,257.7,814.4,259.9,811.6,259.9z"/>
<path class="st20" d="M862.2,281.6H721.6c-0.4,0-0.6-0.3-0.6-0.6s0.3-0.6,0.6-0.6h140.6c0.4,0,0.6,0.3,0.6,0.6
	S862.6,281.6,862.2,281.6z"/>
<path class="st3" d="M738.6,157.2v0.8H601.4v-0.8l0.7-1l43.5-60c0.7-1,2.1-1.2,3-0.5c0.2,0.1,0.4,0.3,0.5,0.5l29.2,40.2l20.8-28.4
	c0.7-0.9,2.1-1.2,3-0.5c0.2,0.1,0.3,0.3,0.5,0.5l35.2,48.2L738.6,157.2z"/>
<ellipse class="st23" cx="601.1" cy="101.6" rx="16" ry="15.6"/>
<path class="st24" d="M824.4,158.6H513.1c-6,0-10.9-4.8-10.9-10.7V83.3c0-5.9,4.9-10.7,10.9-10.7h311.3c6,0,10.9,4.8,10.9,10.7v64.6
	C835.3,153.8,830.4,158.6,824.4,158.6z M513.1,73.9c-5.3,0-9.6,4.2-9.6,9.4v64.6c0,5.2,4.3,9.4,9.6,9.4h311.3c5.3,0,9.6-4.2,9.6-9.4
	V83.3c0-5.2-4.3-9.4-9.6-9.4H513.1z"/>
<path class="st25" d="M402.8,355.5c-8.8-6.3-10.8-11.5-10.9-15.3c-0.2-7.2,6.6-9.7,5.1-16.4c-1.2-5.2-5.9-6-8.2-13.9
	c-0.9-2.9-0.9-5.2-1-6.9c-0.4-12.7,8.5-27.9,10.6-31.3c0,0-14,29.2-8,37.6c5,7,7.9,8.3,8.3,14.7c0.4,6.8-5.3,9.1-5.4,15.8
	C393.1,343.7,394.8,349,402.8,355.5z"/>
<path class="st4" d="M270.3,236.3c11.1,0.2,28.1-0.9,47.5-7.7c17.8-6.2,31-14.8,39.5-21.4c-12.3,6.5-27.4,13.2-45.1,18.9
	C296.9,231.1,282.7,234.3,270.3,236.3z"/>
<path class="st7" d="M51.7,495c59.5-0.1,59.5-0.1,59.5-0.1c0.3,23.1-13.3,42.3-29.7,45.9c-20.5,4.6-44.7-15-46-45.2"/>
<path class="st26" d="M99.1,494.9c1.1,0,2.2,0,3.3,0c-0.9,6.1-2.2,13.8-3.9,22.9c0,0-2.1,11.5-6.9,17.3c-0.8,0.9-2.4,2.6-4.7,3.9
	c-0.6,0.3-2.4,1.4-2.7,1.1c-0.4-0.5,2.9-3.4,4.9-5.9c1.8-2.2,3.8-5.4,6.4-16.7C96.9,511.7,98.3,504.1,99.1,494.9z"/>
</svg>
