<?xml version="1.0" encoding="utf-8"?>
<!-- Generator: Adobe Illustrator 24.3.0, SVG Export Plug-In . SVG Version: 6.00 Build 0)  -->
<svg version="1.1" id="b944483d-564a-4430-a20f-83b53d0ebb22"
	 xmlns="http://www.w3.org/2000/svg" xmlns:xlink="http://www.w3.org/1999/xlink" x="0px" y="0px" viewBox="0 0 972 639.9"
	 style="enable-background:new 0 0 972 639.9;" xml:space="preserve">
<style type="text/css">
	.st0{fill:#E6E6E6;}
	.st1{fill:#FFFFFF;}
	.st2{fill:#F9C3B7;}
	.st3{fill:#75CCCA;}
	.st4{fill:#FFB8B8;}
	.st5{fill:#2F2E41;}
	.st6{fill:#FAFAFC;}
	.st7{fill:#F2F2F2;}
	.st8{fill:#95EFF4;}
	.st9{fill:#CCCCCC;}
	.st10{fill:#CAE6E8;}
	.st11{fill:#8DE0DC;}
	.st12{fill:#63F1FF;}
	.st13{fill:#F9F9F9;}
</style>
<path class="st0" d="M634.4,279.4c-1.1,5.9-2.5,11.7-4,17.5c-0.2,0.7-0.4,1.3-0.5,2H608c-3.9,0-7,3.1-7,7V368
	c-0.7,1.2-1.3,2.5-2,3.7c-3.5,6.3-7.1,12.5-10.7,18.7c-60,100-143.7,183.6-243.7,243.5l5.9-13.4c-2.2-0.2-4.4-0.3-6.5-0.4
	c-47.3-3.2-94.7-6.8-140.8-17.4c-48.3-11.1-95.5-30.4-133.3-62.3c-37.8-32-65.6-77.6-69.4-127c-1.3-17,0.4-34,5.1-50.4
	c8.9-31.5,28.3-59.9,56.2-76.7c43.9-26.3,101.2-21,147.5,0.9c46.3,21.9,84,58.2,120.8,93.8c-37.1-63.7-88.9-117.7-150.9-157.5
	c-20.6-13.2-42.4-24.9-59.9-41.9c-17.5-17-30.4-40.9-27.3-65.1c3.5-27.5,26-48.3,48.5-64.4c9-6.4,18.3-12.5,27.9-18.1
	c27-15.8,56.3-27.8,87.1-32.2c41.8-6,87,3.1,119.1,30.6c36.1,31,50.9,81,49.5,128.9c22.3-32.4,56.6-57.1,95.4-58.2
	c40.3-1.1,78.5,24.4,98.7,59.2C638.3,197.1,641.9,239.9,634.4,279.4z"/>
<path class="st1" d="M379.7,413.8c23.6-2.1,45.4-4.5,68.2-11c22.1-6.3,43.5-16.8,59.2-33.9c17-18.4,26.1-42.3,32.6-66.2
	c3.6-13.3,6.6-26.7,9.3-40.2c3-14.6,5.7-29.3,8.1-44c4.7-29.3,8-58.9,10-88.6c0.2-3.6,0.5-7.2,0.7-10.8c0.1-2.2-3.3-2.2-3.5,0
	c-1.6,29.3-4.6,58.4-8.9,87.5c-4.2,28.5-9.6,56.9-16.5,85c-5.8,23.7-13.3,47.8-28.2,67.6c-14,18.5-34.1,30.6-55.9,37.9
	c-22.2,7.4-45.5,10.3-68.7,12.5c-2.8,0.3-3.7,0.5-6.5,0.8C377.5,410.5,377.5,414,379.7,413.8L379.7,413.8z"/>
<path class="st1" d="M7.5,365.5c29.7,1.6,59.2,6.8,87.7,15.5c28.5,8.6,55.9,20.5,81.7,35.6c24.9,14.5,47.9,31.9,68.8,51.8
	c20.2,19.3,38.2,40.8,53.7,64.1c15.6,23.3,28.5,48.3,38.4,74.5c1.2,3.2,2.4,6.4,3.5,9.7c0.7,2.1,4.1,1.2,3.3-0.9
	c-9.3-26.8-21.7-52.4-36.7-76.4c-15.1-24-32.7-46.3-52.7-66.4c-20.3-20.4-42.9-38.4-67.3-53.7c-51.3-31.9-109.4-51.3-169.6-56.4
	c-3.6-0.3-7.3-0.6-10.9-0.8C5.3,361.9,5.3,365.4,7.5,365.5L7.5,365.5z"/>
<path class="st1" d="M169.3,38c19,6,37,14.9,53.5,26.1c16.8,11.6,32.2,25.2,45.7,40.6c14.2,16.1,26.9,33.6,37.8,52.1
	c11.6,19.6,21.6,40,30.1,61.1c8.7,21.7,16,43.9,21.9,66.5c6,22.9,10.7,46.1,14,69.5c3.3,23.2,5.3,46.5,6,69.9c0.7,22.4,0,44.7-2,67
	c-1.8,20.8-5.2,41.4-10.1,61.7c-4.3,18.3-10.4,36.2-18.2,53.4c-1.8,3.9-3.7,7.7-5.7,11.5c-1,2,1.9,3.7,3,1.7
	c8.6-16.4,15.4-33.6,20.4-51.4c5.6-19.8,9.7-40,12.2-60.5c2.8-22.2,4.1-44.5,4-66.9c0-23.5-1.4-47-4.2-70.3
	c-2.7-23.6-6.8-47.1-12.2-70.2c-5.4-23.2-12.2-46-20.4-68.4c-7.9-21.6-17.4-42.7-28.3-62.9c-10.4-19.3-22.6-37.7-36.3-54.9
	c-13-16.3-27.9-31.1-44.4-44c-15.9-12.4-33.4-22.5-52.1-30c-4.6-1.8-9.2-3.5-13.9-4.9C168.1,34,167.1,37.4,169.3,38z"/>
<ellipse class="st0" cx="374.5" cy="629.9" rx="247.5" ry="10"/>
<path class="st2" d="M593.2,316.7c-0.1,0.5-0.2,1.1-0.2,1.6l-43,24.8l-10.4-6l-11.1,14.6l22.3,15.9l49-38.7c5.4,2,11.5-0.8,13.5-6.2
	c2-5.4-0.8-11.5-6.2-13.5c-5.4-2-11.5,0.8-13.5,6.2C593.4,315.8,593.3,316.3,593.2,316.7L593.2,316.7z"/>
<path class="st3" d="M495.3,331.9l33.8,24.1l15.1-19l-32.9-26.4c-5.7-4.6-14.1-3.7-18.7,2.1c-0.2,0.2-0.3,0.4-0.5,0.6l0,0
	C488,319.3,489.3,327.6,495.3,331.9L495.3,331.9z"/>
<polygon class="st4" points="425.5,607 437.4,610.1 455,565.8 437.5,561.2 "/>
<path class="st5" d="M457.4,627.1l-37.3-9.8l0,0l3.8-14.4l0,0l22.9,6C454.7,611,459.4,619.1,457.4,627.1L457.4,627.1L457.4,627.1z"
	/>
<polygon class="st4" points="530.9,615.4 543,613.2 540.4,565.7 522.6,568.8 "/>
<path class="st5" d="M568.3,620.3l-37.9,6.8l0,0l-2.6-14.7l0,0l23.3-4.2C559.1,606.8,566.8,612.2,568.3,620.3L568.3,620.3
	L568.3,620.3z"/>
<path class="st5" d="M507.2,265.5c3,0.7,5.4,3.8,6.8,7.3c1.3,3.7,2.2,7.5,2.7,11.4c1.1,7.3,2.2,15.1-0.1,21.8
	c-2.8,7.9-10.1,12-16.5,10.1c-6.4-1.9-11.5-9.2-13.2-17.6c-1.6-8.5-0.6-17.2,2.9-25.1c1.8-4.1,4.3-8,7.7-9.8c3.4-2,7.8-1.1,10.1,2.1
	"/>
<path class="st5" d="M524,396.9l23,205.8l-19,7.2l-35-138l-48.7,126.2l-20.8,1.2c0,0,28.5-196.3,49.6-200.8L524,396.9z"/>
<ellipse transform="matrix(0.1602 -0.9871 0.9871 0.1602 160.0999 722.5962)" class="st2" cx="504.7" cy="267.2" rx="24.6" ry="24.6"/>
<path class="st3" d="M515.2,302.1l-26.5-3.5c0,0-17.3,20.8-16.2,56.5s-2.9,46.7-2.9,46.7l55.3,1C517,391.9,550.5,328.7,515.2,302.1z
	"/>
<path class="st2" d="M529.5,407.9c-0.6,0-1.1,0.1-1.7,0.1l-34-36.1l3.5-11.5l-16.7-7.5l-10.4,25.4l48.9,38.9
	c-0.7,5.8,3.4,11,9.1,11.7s11-3.4,11.7-9.1c0.7-5.8-3.4-11-9.1-11.7C530.4,407.9,529.9,407.9,529.5,407.9L529.5,407.9z"/>
<path class="st3" d="M492.3,316.1l-15.7,38.4l21.9,10.4l18.2-38c3.2-6.6,0.4-14.6-6.3-17.8c-0.2-0.1-0.5-0.2-0.7-0.3l0,0
	C502.9,306.1,495.1,309.3,492.3,316.1C492.3,316.1,492.3,316.1,492.3,316.1z"/>
<path class="st5" d="M498.3,289.5c3.8-2.2,4.3-7.6,3.7-12s-1.4-9.3,1.2-12.9c3.1-4.3,9.3-4.4,14.6-4.5c5.3-0.1,11.8-1.7,13.1-6.8
	c0.9-3.4-1-7-3.8-9.1s-6.3-3.1-9.7-4c-7.6-2-15.4-4-23.2-2.9c-16,2.3-27.2,17-25.2,33c1.3,9.9,3.1,14.2,1.9,18.5
	c-2.2,8.1-11.8,13.3-12,21.7c-0.1,6.6,5.6,11.6,11.3,15c4.5,2.6,9.3,4.9,14.5,5.5s10.7-0.6,14.6-4.1c5-4.5,6.2-12.1,4.8-18.6
	s-5.1-12.4-8.7-18"/>
<path class="st6" d="M964.8,298.6H605c-2.9,0-5.2,2.5-5.2,5.5v258.1c0,3,2.3,5.5,5.2,5.5h359.8c1.5,0,2.9-0.7,3.9-1.9
	c0,0,0.1-0.1,0.1-0.2c0.3-0.4,0.6-0.8,0.7-1.3c0.3-0.7,0.4-1.4,0.4-2.1V304.1C970,301.1,967.7,298.6,964.8,298.6z M968.5,562.2
	c0,0.8-0.2,1.5-0.6,2.1c-0.4,0.6-0.8,1-1.4,1.3c-0.5,0.3-1.1,0.4-1.7,0.4H605c-2,0-3.7-1.8-3.7-3.9V304.1c0-2.2,1.7-3.9,3.7-3.9
	h359.8c2,0,3.7,1.7,3.7,3.9V562.2z"/>
<rect x="600.6" y="320.5" class="st6" width="368.7" height="1.6"/>
<ellipse class="st0" cx="613.1" cy="310.3" rx="4.4" ry="4.7"/>
<ellipse class="st0" cx="625.9" cy="310.3" rx="4.4" ry="4.7"/>
<ellipse class="st0" cx="639.6" cy="310.3" rx="3.4" ry="4.7"/>
<path class="st7" d="M925.5,433.9H638c-5.6,0-10.1-4.8-10.1-10.7v-64.6c0-5.9,4.5-10.7,10.1-10.7h287.5c5.6,0,10.1,4.8,10.1,10.7
	v64.6C935.6,429.2,931.1,433.9,925.5,433.9z M638,349.2c-4.9,0-8.9,4.2-8.9,9.4v64.6c0,5.2,4,9.4,8.9,9.4h287.5
	c4.9,0,8.9-4.2,8.9-9.4v-64.6c0-5.2-4-9.4-8.9-9.4H638z"/>
<path class="st7" d="M701.5,550.7H638c-5.6,0-10.1-4.8-10.1-10.7v-47.7c0-5.9,4.5-10.7,10.1-10.7h63.4c5.6,0,10.1,4.8,10.1,10.7V540
	C711.5,545.9,707,550.7,701.5,550.7z M638,482.9c-4.9,0-8.9,4.2-8.9,9.4V540c0,5.2,4,9.4,8.9,9.4h63.4c4.9,0,8.9-4.2,8.9-9.4v-47.7
	c0-5.2-4-9.4-8.9-9.4H638z"/>
<path class="st7" d="M925.5,550.7h-63.4c-5.6,0-10.1-4.8-10.1-10.7v-47.7c0-5.9,4.5-10.7,10.1-10.7h63.4c5.6,0,10.1,4.8,10.1,10.7
	V540C935.6,545.9,931.1,550.7,925.5,550.7z M862.1,482.9c-4.9,0-8.9,4.2-8.9,9.4V540c0,5.2,4,9.4,8.9,9.4h63.4
	c4.9,0,8.9-4.2,8.9-9.4v-47.7c0-5.2-4-9.4-8.9-9.4H862.1z"/>
<path class="st7" d="M818.2,550.7h-63.4c-5.6,0-10.1-4.8-10.1-10.7v-47.7c0-5.9,4.5-10.7,10.1-10.7h63.4c5.6,0,10.1,4.8,10.1,10.7
	V540C828.3,545.9,823.8,550.7,818.2,550.7z M754.8,482.9c-4.9,0-8.9,4.2-8.9,9.4V540c0,5.2,4,9.4,8.9,9.4h63.4
	c4.9,0,8.9-4.2,8.9-9.4v-47.7c0-5.2-4-9.4-8.9-9.4H754.8z"/>
<polygon class="st7" points="631.2,352.1 631.5,350.9 935.2,429.6 934.9,430.8 "/>
<polygon class="st7" points="631.2,429.8 932.1,350.9 932.4,352.1 631.5,431 "/>
<path class="st1" d="M937.4,455.6H649.9c-5.4,0-9.8-4.6-9.8-10.4v-64.6c0-5.7,4.4-10.3,9.8-10.4h287.5c5.4,0,9.8,4.6,9.8,10.4v64.6
	C947.2,451,942.8,455.6,937.4,455.6z"/>
<polygon class="st7" points="748,485.5 748.7,484.5 824.7,547.2 824,548.2 "/>
<polygon class="st7" points="749.4,548 824.3,484.5 825.1,485.5 750.1,549 "/>
<polygon class="st7" points="855.3,485.5 856,484.5 932,547.2 931.3,548.2 "/>
<polygon class="st7" points="856.7,548 931.6,484.5 932.4,485.5 857.4,549 "/>
<path class="st8" d="M827.1,596.2h-63.4c-5.4,0-9.8-4.6-9.8-10.4v-47.7c0-5.7,4.4-10.3,9.8-10.4h63.4c5.4,0,9.8,4.6,9.8,10.4v47.7
	C836.9,591.5,832.5,596.2,827.1,596.2z"/>
<path class="st9" d="M860.3,597.1H730.4c-0.3,0-0.6-0.3-0.6-0.6s0.3-0.6,0.6-0.6h129.8c0.3,0,0.6,0.3,0.6,0.6
	S860.6,597.1,860.3,597.1z"/>
<path class="st1" d="M803.7,558.5h-16.6c-2.6,0-4.7-2.2-4.7-5c0-2.8,2.1-5,4.7-5h16.6c2.6,0,4.7,2.2,4.7,5
	C808.4,556.3,806.3,558.5,803.7,558.5z"/>
<path class="st1" d="M813.5,575.5h-36.2c-2.6,0-4.7-2.2-4.7-5c0-2.8,2.1-5,4.7-5h36.2c2.6,0,4.7,2.2,4.7,5
	C818.2,573.2,816.1,575.5,813.5,575.5z"/>
<path class="st10" d="M711.5,559.8h-63.4c-5.4,0-9.8-4.6-9.8-10.4v-47.7c0-5.7,4.4-10.3,9.8-10.4h63.4c5.4,0,9.8,4.6,9.8,10.4v47.7
	C721.3,555.1,716.9,559.8,711.5,559.8z"/>
<path class="st1" d="M688.1,522.1h-16.6c-2.6,0-4.7-2.2-4.7-5c0-2.8,2.1-5,4.7-5h16.6c2.6,0,4.7,2.2,4.7,5
	C692.8,519.9,690.7,522.1,688.1,522.1z"/>
<path class="st1" d="M697.9,539.1h-36.2c-2.6,0-4.7-2.2-4.7-5c0-2.8,2.1-5,4.7-5h36.2c2.6,0,4.7,2.2,4.7,5
	C702.7,536.8,700.5,539.1,697.9,539.1z"/>
<path class="st0" d="M939.2,578h-63.4c-5.4,0-9.8-4.6-9.8-10.4v-47.7c0-5.7,4.4-10.3,9.8-10.4h63.4c5.4,0,9.8,4.6,9.8,10.4v47.7
	C948.9,573.3,944.6,578,939.2,578z"/>
<path class="st1" d="M915.7,540.3h-16.6c-2.6,0-4.7-2.2-4.7-5c0-2.8,2.1-5,4.7-5h16.6c2.6,0,4.7,2.2,4.7,5
	C920.5,538.1,918.3,540.3,915.7,540.3z"/>
<path class="st1" d="M925.5,557.3h-36.2c-2.6,0-4.7-2.2-4.7-5c0-2.8,2.1-5,4.7-5h36.2c2.6,0,4.7,2.2,4.7,5
	C930.3,555,928.2,557.3,925.5,557.3z"/>
<path class="st9" d="M972.3,578.9H842.5c-0.3,0-0.6-0.3-0.6-0.6c0-0.3,0.3-0.6,0.6-0.6h129.8c0.3,0,0.6,0.3,0.6,0.6
	C972.9,578.6,972.6,578.9,972.3,578.9z"/>
<path class="st11" d="M858.1,454.5v0.8H731.4v-0.8l0.7-1l40.2-60c0.6-1,1.9-1.2,2.8-0.5c0.2,0.1,0.3,0.3,0.5,0.5l26.9,40.2
	l19.2-28.4c0.7-0.9,1.9-1.2,2.8-0.5c0.2,0.1,0.3,0.3,0.4,0.5l32.5,48.2L858.1,454.5z"/>
<ellipse class="st12" cx="731.2" cy="398.9" rx="14.7" ry="15.6"/>
<path class="st13" d="M937.4,455.9H649.9c-5.6,0-10.1-4.8-10.1-10.7v-64.6c0-5.9,4.5-10.7,10.1-10.7h287.5c5.6,0,10.1,4.8,10.1,10.7
	v64.6C947.5,451.1,943,455.9,937.4,455.9z M649.9,371.2c-4.9,0-8.9,4.2-8.9,9.4v64.6c0,5.2,4,9.4,8.9,9.4h287.5
	c4.9,0,8.9-4.2,8.9-9.4v-64.6c0-5.2-4-9.4-8.9-9.4H649.9z"/>
</svg>
