<?xml version="1.0" encoding="utf-8"?>
<!-- Generator: Adobe Illustrator 24.3.0, SVG Export Plug-In . SVG Version: 6.00 Build 0)  -->
<svg version="1.1" id="Layer_1" xmlns="http://www.w3.org/2000/svg" xmlns:xlink="http://www.w3.org/1999/xlink" x="0px" y="0px"
	 viewBox="0 0 809 499" style="enable-background:new 0 0 809 499;" xml:space="preserve">
<style type="text/css">
	.st0{fill:#606060;}
	.st1{fill:#4A5882;}
	.st2{fill:#B9CDCA;}
	.st3{fill:#F2BA78;}
	.st4{fill:#575759;}
	.st5{font-family:'ScriptMTBold';}
	.st6{font-size:18px;}
	.st7{fill:#FFFFFF;}
	.st8{font-size:21px;}
	.st9{fill:none;stroke:#000000;stroke-miterlimit:10;}
	.st10{fill:none;stroke:#575759;stroke-miterlimit:10;}
</style>
<rect class="st0" width="809" height="499"/>
<g>
	<path class="st1" d="M331.6,95c-5.4,0-9.8-4.4-9.8-9.8V54.8c0-5.4,4.4-9.8,9.8-9.8H452c5.4,0,9.8,4.4,9.8,9.8v30.4
		c0,5.4-4.4,9.8-9.8,9.8H331.6z"/>
	<path d="M452,45.5c5.1,0,9.3,4.2,9.3,9.3v30.4c0,5.1-4.2,9.3-9.3,9.3H331.6c-5.1,0-9.3-4.2-9.3-9.3V54.8c0-5.1,4.2-9.3,9.3-9.3
		L452,45.5 M452,44.5H331.6c-5.7,0-10.3,4.6-10.3,10.3v30.4c0,5.7,4.6,10.3,10.3,10.3H452c5.7,0,10.3-4.6,10.3-10.3V54.8
		C462.3,49.2,457.6,44.5,452,44.5L452,44.5z"/>
</g>
<g>
	<path class="st2" d="M120.7,189H31.3c-5.7,0-10.3-4.6-10.3-10.3v-24.4c0-5.7,4.6-10.3,10.3-10.3h89.4c5.7,0,10.3,4.6,10.3,10.3
		v24.4C131,184.4,126.4,189,120.7,189z"/>
</g>
<g>
	<path class="st2" d="M245.4,189H150c-5.7,0-10.3-4.6-10.3-10.3v-24.4c0-5.7,4.6-10.3,10.3-10.3h95.4c5.7,0,10.3,4.6,10.3,10.3v24.4
		C255.7,184.4,251.1,189,245.4,189z"/>
</g>
<g>
	<path class="st2" d="M373.7,189.2h-95.4c-5.7,0-10.3-4.6-10.3-10.3v-24.4c0-5.7,4.6-10.3,10.3-10.3h95.4c5.7,0,10.3,4.6,10.3,10.3
		v24.4C384,184.6,379.4,189.2,373.7,189.2z"/>
</g>
<g>
	<path class="st3" d="M298,273h-95.4c-5.7,0-10.3-4.6-10.3-10.3v-24.4c0-5.7,4.6-10.3,10.3-10.3H298c5.7,0,10.3,4.6,10.3,10.3v24.4
		C308.3,268.4,303.7,273,298,273z"/>
</g>
<g>
	<path class="st3" d="M176.3,273H80.9c-5.7,0-10.3-4.6-10.3-10.3v-24.4c0-5.7,4.6-10.3,10.3-10.3h95.4c5.7,0,10.3,4.6,10.3,10.3
		v24.4C186.6,268.4,181.9,273,176.3,273z"/>
</g>
<g>
	<path class="st2" d="M507.7,189h-95.4c-5.7,0-10.3-4.6-10.3-10.3v-24.4c0-5.7,4.6-10.3,10.3-10.3h95.4c5.7,0,10.3,4.6,10.3,10.3
		v24.4C518,184.4,513.3,189,507.7,189z"/>
</g>
<g>
	<path class="st2" d="M507.7,244h-95.4c-5.7,0-10.3-4.6-10.3-10.3v-24.4c0-5.7,4.6-10.3,10.3-10.3h95.4c5.7,0,10.3,4.6,10.3,10.3
		v24.4C518,239.4,513.4,244,507.7,244z"/>
</g>
<g>
	<path class="st3" d="M761,267.5h-95.4c-5.7,0-10.3-4.6-10.3-10.3v-24.4c0-5.7,4.6-10.3,10.3-10.3H761c5.7,0,10.3,4.6,10.3,10.3
		v24.4C771.4,262.9,766.7,267.5,761,267.5z"/>
</g>
<g>
	<path class="st3" d="M761.3,383.5h-95.4c-5.7,0-10.3-4.6-10.3-10.3v-24.4c0-5.7,4.6-10.3,10.3-10.3h95.4c5.7,0,10.3,4.6,10.3,10.3
		v24.4C771.6,378.9,767,383.5,761.3,383.5z"/>
</g>
<g>
	<path class="st3" d="M760,326h-95.4c-5.7,0-10.3-4.6-10.3-10.3v-24.4c0-5.7,4.6-10.3,10.3-10.3H760c5.7,0,10.3,4.6,10.3,10.3v24.4
		C770.3,321.4,765.6,326,760,326z"/>
</g>
<g>
	<path class="st2" d="M761.5,189.8h-95.4c-5.7,0-10.3-4.6-10.3-10.3v-24.4c0-5.7,4.6-10.3,10.3-10.3h95.4c5.7,0,10.3,4.6,10.3,10.3
		v24.4C771.8,185.1,767.2,189.8,761.5,189.8z"/>
</g>
<text transform="matrix(0.8553 0 0 1 45.6431 171.8442)" class="st4 st5 st6">About Us</text>
<text transform="matrix(0.8553 0 0 1 177.5879 171.8442)" class="st4 st5 st6">Menu </text>
<text transform="matrix(0.8553 0 0 1 112.751 255.8442)" class="st4 st5 st6">Chai </text>
<text transform="matrix(0.8553 0 0 1 223.0303 255.8442)" class="st4 st5 st6">Paratha </text>
<text transform="matrix(0.8553 0 0 1 663.0537 308.8442)" class="st4 st5 st6">Pickup/delivery</text>
<text transform="matrix(0.8553 0 0 1 686.6855 366.3442)" class="st4 st5 st6">Payment</text>
<g>
	<path class="st3" d="M761.8,448.5h-95.4c-5.7,0-10.3-4.6-10.3-10.3v-24.4c0-5.7,4.6-10.3,10.3-10.3h95.4c5.7,0,10.3,4.6,10.3,10.3
		v24.4C772.1,443.9,767.4,448.5,761.8,448.5z"/>
</g>
<text transform="matrix(0.8553 0 0 1 674.252 431.3438)" class="st4 st5 st6">Confirmation</text>
<text transform="matrix(0.8553 0 0 1 699.9521 250.3442)" class="st4 st5 st6">Cart</text>
<text transform="matrix(0.7765 0 0 1 674.5234 172.6318)" class="st4 st5 st6">Fill Your cart</text>
<text transform="matrix(0.8553 0 0 1 299.0161 172.0864)" class="st4 st5 st6">Gallery </text>
<text transform="matrix(0.8553 0 0 1 437.3418 171.8442)" class="st4 st5 st6">Contact</text>
<text transform="matrix(0.8553 0 0 1 434.3418 228.8442)" class="st4 st5 st6">Location</text>
<text transform="matrix(0.8553 0 0 1 370.0459 76.2915)" class="st7 st5 st8">Home</text>
<path class="st9" d="M68.5,144.5c0.3-6,0.7-12,1-18c214,0.3,428,0.7,642,1c0,5.7,0,11.3,0,17"/>
<line class="st9" x1="392.5" y1="96" x2="392.5" y2="126.6"/>
<path class="st9" d="M195,126.6c-0.5,16.9-0.5,16.9-0.5,16.9"/>
<path class="st9" d="M326,126.6c-0.5,16.9-0.5,16.9-0.5,16.9"/>
<line class="st9" x1="460" y1="126.6" x2="460" y2="143.5"/>
<path class="st9" d="M253.5,228.5c-0.2-5.2-0.3-10.5-0.5-15.7H127c0,5,0,10,0,15"/>
<line class="st9" x1="191" y1="189" x2="191" y2="210.8"/>
<line class="st9" x1="712.5" y1="266" x2="712.5" y2="280"/>
<polyline class="st9" points="712.5,384 712.5,403 707.5,398.5 "/>
<line class="st9" x1="716.5" y1="399.5" x2="712.5" y2="403"/>
<polyline class="st9" points="707.5,335.1 712.5,339 712.5,325 "/>
<line class="st9" x1="716.5" y1="336.5" x2="712.5" y2="339"/>
<path class="st9" d="M707.5,274c5,6.5,5,6.5,5,6.5l4-6.5"/>
<path class="st9" d="M707.5,215l5,6.5c0,0,0,0-0.5-35.3"/>
<path class="st9" d="M716.5,214.4c-4,7.1-4,7.1-4,7.1"/>
<path class="st9" d="M707,138.4c5,6.5,5,6.5,5,6.5l4-6.5"/>
<path class="st9" d="M455,137.4c5,6.5,5,6.5,5,6.5l4-6.5"/>
<g>
	<path class="st2" d="M635.7,189h-95.4c-5.7,0-10.3-4.6-10.3-10.3v-24.4c0-5.7,4.6-10.3,10.3-10.3h95.4c5.7,0,10.3,4.6,10.3,10.3
		v24.4C646,184.4,641.3,189,635.7,189z"/>
</g>
<text transform="matrix(0.8553 0 0 1 543.3418 171.8442)" class="st4 st5 st6">Deal of the day</text>
<line class="st9" x1="588" y1="126.6" x2="588" y2="143.5"/>
<path class="st9" d="M583,137.4c5,6.5,5,6.5,5,6.5l4-6.5"/>
<path class="st9" d="M321,137.4c5,6.5,5,6.5,5,6.5l4-6.5"/>
<path class="st9" d="M387,119.4c5.6,6.5,5.6,6.5,5.6,6.5l4.5-6.5"/>
<path class="st9" d="M189,137.4c5.6,6.5,5.6,6.5,5.6,6.5l4.4-6.5"/>
<path class="st9" d="M63,138.4c5.6,6.5,5.6,6.5,5.6,6.5l4.4-6.5"/>
<path class="st9" d="M248,221.4c5,6.5,5,6.5,5,6.5l4-6.5"/>
<path class="st9" d="M122,221.4c5,6.5,5,6.5,5,6.5l4-6.5"/>
<polyline class="st10" points="588,189.2 588,245 654.3,245 643.5,240.5 "/>
<line class="st10" x1="644.4" y1="250.3" x2="654.3" y2="245"/>
</svg>
